<svg xmlns="http://www.w3.org/2000/svg" viewBox="0 0 128 53.01" height="73" width="181">
  <defs>
    <style>.cls-1{fill:#7dbb48;}.cls-2{fill:#28abe3;}.cls-3{fill:#e32185;}.cls-4{fill:#ef7b24;}</style>
  </defs>
  <g id="Vrstva_2">
    <g id="Layer_1">
      <g id="logo">
        <path d="M4.54,52.19v.71H0V46.66H4.4v.71H.76v2H3.59v.71H.76v2.09Z"/>
        <path d="M8.73,48.18l-.15.73a1.24,1.24,0,0,0-.6-.12,1.17,1.17,0,0,0-.6.18,1.2,1.2,0,0,0-.47.53,1.79,1.79,0,0,0-.19.85V52.9H6V48.18h.62l.11.77a1.52,1.52,0,0,1,1.52-.87A1.12,1.12,0,0,1,8.73,48.18Z"/>
        <path d="M14.28,52.31l0,.59a1.59,1.59,0,0,1-.57.1.91.91,0,0,1-.58-.16.75.75,0,0,1-.27-.54,1.48,1.48,0,0,1-.64.52,2.25,2.25,0,0,1-.89.18,1.92,1.92,0,0,1-1.16-.33,1.06,1.06,0,0,1-.46-.94,1.15,1.15,0,0,1,.48-.93,2.83,2.83,0,0,1,1.37-.54l1.27-.21v-.27a1,1,0,0,0-.3-.75,1.1,1.1,0,0,0-.81-.29,1.53,1.53,0,0,0-.83.23,1.4,1.4,0,0,0-.53.67l-.56-.4a1.56,1.56,0,0,1,.71-.85,2.35,2.35,0,0,1,1.21-.31,2.12,2.12,0,0,1,1.35.41,1.42,1.42,0,0,1,.52,1.2V52a.3.3,0,0,0,.25.34h.11A2.43,2.43,0,0,0,14.28,52.31Zm-1.93-.26a.88.88,0,0,0,.43-.73v-.66l-1.07.2a2.69,2.69,0,0,0-1,.33.63.63,0,0,0-.31.54.51.51,0,0,0,.23.45,1,1,0,0,0,.63.16A1.82,1.82,0,0,0,12.35,52.05Z"/>
        <path d="M16.06,52.73a1.74,1.74,0,0,1-.81-.8l.62-.43a1.15,1.15,0,0,0,.56.63,1.91,1.91,0,0,0,.94.21,1.52,1.52,0,0,0,.86-.2.57.57,0,0,0,.29-.5.48.48,0,0,0-.27-.44,3.12,3.12,0,0,0-1-.29,5.18,5.18,0,0,1-1.09-.3,1.3,1.3,0,0,1-.57-.44,1.14,1.14,0,0,1-.19-.67,1.23,1.23,0,0,1,.23-.71,1.6,1.6,0,0,1,.66-.52,2.47,2.47,0,0,1,1-.19,2.36,2.36,0,0,1,1.22.28,1.61,1.61,0,0,1,.66.86l-.65.37a1.13,1.13,0,0,0-.46-.65,1.6,1.6,0,0,0-1.56,0,.58.58,0,0,0-.33.48.58.58,0,0,0,.28.49,3.19,3.19,0,0,0,1,.29,3.17,3.17,0,0,1,1.39.48,1.08,1.08,0,0,1,.41.91,1.18,1.18,0,0,1-.24.72,1.56,1.56,0,0,1-.69.5,2.75,2.75,0,0,1-1,.19A2.8,2.8,0,0,1,16.06,52.73Z"/>
        <path d="M69,32v3a1,1,0,0,1-1,1H49a1,1,0,0,1-1-1V5a1,1,0,0,1,1-1H67a1,1,0,0,1,1,1V8a1,1,0,0,1-1,1H53v9H64a1,1,0,0,1,1,1v3a1,1,0,0,1-1,1H53v8H68A1,1,0,0,1,69,32Z"/>
        <path d="M108,36h-3a1,1,0,0,1-1-1V5a1,1,0,0,1,1-1h4.4a1,1,0,0,1,.88.52L123,28V5a1,1,0,0,1,1-1h3a1,1,0,0,1,1,1V35a1,1,0,0,1-1,1h-4.42a1,1,0,0,1-.87-.51L109,13V35A1,1,0,0,1,108,36Z"/>
        <path class="cls-1" d="M23,1V12.76L21.66,16H18.34L17,12.76V1a1,1,0,0,1,1-1h4A1,1,0,0,1,23,1Z"/>
        <path class="cls-2" d="M8.71,4.69,17,12.76,18.35,16,16,18.35,12.76,17,4.69,8.71a1,1,0,0,1,0-1.41l2.6-2.6a1,1,0,0,1,1.41,0Z"/>
        <path class="cls-3" d="M1,17H12.76L16,18.34v3.32L12.76,23H1a1,1,0,0,1-1-1V18A1,1,0,0,1,1,17Z"/>
        <path class="cls-4" d="M4.47,31.29,12.76,23,16,21.65,18.35,24,17,27.24l-8.32,8.1a1,1,0,0,1-1.38,0L4.49,32.72a1,1,0,0,1,0-1.41Z"/>
        <path class="cls-2" d="M17,39V27.24L18.34,24h3.32L23,27.24V39a1,1,0,0,1-1,1H18A1,1,0,0,1,17,39Z"/>
        <path class="cls-1" d="M31.29,35.31,23,27.24,21.65,24,24,21.65,27.24,23l8.07,8.29a1,1,0,0,1,0,1.41l-2.6,2.6a1,1,0,0,1-1.41,0Z"/>
        <path class="cls-4" d="M39,23H27.24L24,21.66V18.34L27.24,17H39a1,1,0,0,1,1,1v4A1,1,0,0,1,39,23Z"/>
        <path class="cls-3" d="M35.31,8.71,27.24,17,24,18.35,21.65,16,23,12.76l8.29-8.07a1,1,0,0,1,1.41,0l2.6,2.6a1,1,0,0,1,0,1.41Z"/>
        <path d="M98.08,27.3a8.29,8.29,0,0,1-1.52,4.93A9.62,9.62,0,0,1,92.3,35.5a17.65,17.65,0,0,1-14.23-.75,13.78,13.78,0,0,1-3.4-2.92,1,1,0,0,1,.11-1.41l0,0,2.33-1.75a1,1,0,0,1,1.4.2l0,0a6.75,6.75,0,0,0,1.88,1.81,10.36,10.36,0,0,0,5.67,1.45,9.77,9.77,0,0,0,5.34-1.26,3.75,3.75,0,0,0,1.85-3.37,3.29,3.29,0,0,0-1.59-2.88,17.85,17.85,0,0,0-6.23-2L84,22.3a17.42,17.42,0,0,1-7.15-2.9,7.37,7.37,0,0,1-2.67-6,8.82,8.82,0,0,1,1.44-4.88A9.87,9.87,0,0,1,79.66,5a13.76,13.76,0,0,1,6.12-1.3c5,0,9.16,1.84,11.69,5.51a1,1,0,0,1-.21,1.39L94.9,12.37a1,1,0,0,1-1.4-.21l0-.06a9.11,9.11,0,0,0-2.8-2.66,8.39,8.39,0,0,0-4.84-1.21,8.34,8.34,0,0,0-5.11,1.38A4,4,0,0,0,79,13a3.38,3.38,0,0,0,.66,2.19A5.67,5.67,0,0,0,82,16.7,25.05,25.05,0,0,0,86.82,18c.55.1,1.08.2,1.59.32a16.27,16.27,0,0,1,7,2.9A7.58,7.58,0,0,1,98.08,27.3Z"/>
      </g>
    </g>
  </g>
</svg>
